<?xml version="1.0" standalone="no"?><!DOCTYPE svg PUBLIC "-//W3C//DTD SVG 1.1//EN" "http://www.w3.org/Graphics/SVG/1.1/DTD/svg11.dtd"><svg t="1710209423014" class="icon" viewBox="0 0 1024 1024" version="1.1" xmlns="http://www.w3.org/2000/svg" p-id="3205" data-darkreader-inline-fill="" xmlns:xlink="http://www.w3.org/1999/xlink" width="200" height="200"><path d="M832 832H192V192h320V128H192c-35.2 0-64 28.8-64 64v640c0 35.2 28.8 64 64 64h640c35.2 0 64-28.8 64-64V512h-64v320z" fill="#ffffff" p-id="3206" data-darkreader-inline-fill="" style="--darkreader-inline-fill: #131313;"></path><path d="M832 832H192V192h320V128H192c-35.2 0-64 28.8-64 64v640c0 35.2 28.8 64 64 64h640c35.2 0 64-28.8 64-64V512h-64v320z" fill="#ffffff" p-id="3207" data-darkreader-inline-fill="" style="--darkreader-inline-fill: #131313;"></path><path d="M832 192V64h-64v128h-128v64h128v128h64V256h128V192z" fill="#ffffff" p-id="3208" data-darkreader-inline-fill="" style="--darkreader-inline-fill: #131313;"></path></svg>